<svg width="180.000000" height="180.000000" viewBox="0 0 180 180" fill="none" xmlns="http://www.w3.org/2000/svg" xmlns:xlink="http://www.w3.org/1999/xlink">
	<desc>
			Created with Pixso.
	</desc>
	<defs/>
	<path id="Vector" d="M163.397 101.778L164.607 90.9763L166.295 89.6261L169.373 89.9725L169.028 93.0586L167.51 92.8879L166.649 100.581L169.705 100.925L170.224 96.2959L173.302 96.6423L172.784 101.271L175.885 101.62L176.746 93.9271L175.207 93.7539L175.552 90.6678L178.609 91.0118L180 92.7085L178.79 103.51L177.059 104.855L172.441 104.335L171.072 102.641L169.362 103.989L164.744 103.469L163.397 101.778Z" fill="#FFFFFF" fill-opacity="1.000000" fill-rule="nonzero"/>
	<path id="Vector" d="M169.078 112.549L166.42 119.817L170.803 121.428L172.403 117.055L170.533 113.083L169.078 112.549ZM161.828 109.883L162.894 106.968L173.053 110.702L175.845 116.666L172.653 125.392L158.11 120.047L159.169 117.152L163.511 118.748L166.17 111.479L161.828 109.883Z" fill="#FFFFFF" fill-opacity="1.000000" fill-rule="nonzero"/>
	<path id="Vector" d="M154.789 126.844L156.527 124.274L169.347 132.99L161.546 144.519L148.727 135.803L150.454 133.251L160.709 140.224L165.044 133.817L154.789 126.844Z" fill="#FFFFFF" fill-opacity="1.000000" fill-rule="nonzero"/>
	<path id="Vector" d="M144.012 141.381L146.311 139.299L156.693 150.823L154.394 152.904L147.482 145.233L148.662 158.093L146.38 160.16L135.998 148.636L138.281 146.569L145.207 154.257L144.012 141.381Z" fill="#FFFFFF" fill-opacity="1.000000" fill-rule="nonzero"/>
	<path id="Vector" d="M121.882 157.311L131.452 152.202L133.518 152.834L139.342 163.798L138.733 165.907L129.162 171.016L127.076 170.345L125.63 167.624L128.345 166.175L129.073 167.545L135.89 163.907L131.522 155.683L124.705 159.322L125.423 160.673L122.708 162.122L121.252 159.381L121.882 157.311Z" fill="#FFFFFF" fill-opacity="1.000000" fill-rule="nonzero"/>
	<path id="Vector" d="M97.7977 167.332L90.0778 167.541L90.3289 176.854L98.0488 176.645L97.7977 167.332ZM88.4457 164.478L99.2845 164.185L100.852 165.673L101.187 178.091L99.703 179.706L88.8641 180L87.2954 178.467L86.9607 166.05L88.4457 164.478Z" fill="#FFFFFF" fill-opacity="1.000000" fill-rule="nonzero"/>
	<path id="Vector" d="M79.3708 163.871L82.3949 164.546L79.0295 179.702L76.0056 179.027L77.3566 172.943L69.8182 171.261L68.4673 177.345L65.465 176.676L68.8303 161.519L71.8326 162.189L70.4913 168.23L78.0295 169.912L79.3708 163.871Z" fill="#FFFFFF" fill-opacity="1.000000" fill-rule="nonzero"/>
	<path id="Vector" d="M62.1785 159.254L64.9497 160.642L60.103 170.365L53.8889 172.459L45.595 168.305L52.5188 154.415L55.2701 155.793L49.7312 166.905L53.8881 168.988L58.0242 167.588L62.1785 159.254Z" fill="#FFFFFF" fill-opacity="1.000000" fill-rule="nonzero"/>
	<path id="Vector" d="M41.3453 156.378L35.484 151.338L32.444 154.89L35.9708 157.923L40.3368 157.557L41.3453 156.378ZM46.3738 150.503L48.7251 152.525L41.6794 160.757L35.1293 161.291L28.0923 155.239L38.1781 143.455L40.5126 145.462L37.5012 148.981L43.3625 154.021L46.3738 150.503Z" fill="#FFFFFF" fill-opacity="1.000000" fill-rule="nonzero"/>
	<path id="Vector" d="M18.8561 150.153L16.3375 151.961L14.5336 149.436L16.1705 148.261L13.4646 144.474L11.8275 145.65L10.0236 143.125L12.542 141.317L14.7032 141.675L19.2004 147.968L18.8561 150.153ZM33.0341 138.035L34.8381 140.56L22.2457 149.601L20.4417 147.077L28.8246 141.057L15.9446 140.783L14.1534 138.277L26.7458 129.235L28.537 131.741L20.136 137.774L33.0341 138.035Z" fill="#FFFFFF" fill-opacity="1.000000" fill-rule="nonzero"/>
	<path id="Vector" d="M23.1703 122.911L24.3129 125.798L9.91492 131.524L8.77246 128.638L14.5521 126.339L11.7041 119.143L5.92444 121.442L4.79004 118.576L19.1879 112.85L20.3223 115.716L14.5836 117.998L17.4318 125.194L23.1703 122.911Z" fill="#FFFFFF" fill-opacity="1.000000" fill-rule="nonzero"/>
	<path id="Vector" d="M16.3529 80.2646L15.434 91.0946L13.7832 92.49L10.6964 92.2268L10.959 89.1324L12.4803 89.2622L13.1348 81.5486L10.0701 81.2872L9.67627 85.9287L6.58948 85.6655L6.98328 81.024L3.87439 80.759L3.21997 88.4727L4.76331 88.6042L4.50085 91.6985L1.43604 91.4373L0 89.7787L0.918945 78.9487L2.61377 77.5571L7.2439 77.9519L8.65796 79.6085L10.3307 78.2151L14.9609 78.6099L16.3529 80.2646Z" fill="#FFFFFF" fill-opacity="1.000000" fill-rule="nonzero"/>
	<path id="Vector" d="M10.2842 69.9728L12.7234 62.6276L8.29346 61.1493L6.82568 65.569L8.81445 69.4823L10.2842 69.9728ZM17.6116 72.418L16.6331 75.3644L6.36633 71.9384L3.39709 66.0613L6.32556 57.2429L21.0223 62.1473L20.0508 65.0728L15.6628 63.6084L13.2235 70.9536L17.6116 72.418Z" fill="#FFFFFF" fill-opacity="1.000000" fill-rule="nonzero"/>
	<path id="Vector" d="M24.1204 55.2137L22.4574 57.8337L9.38879 49.4984L16.8486 37.7456L29.9172 46.0809L28.2661 48.6823L17.8112 42.014L13.6655 48.5454L24.1204 55.2137Z" fill="#FFFFFF" fill-opacity="1.000000" fill-rule="nonzero"/>
	<path id="Vector" d="M34.2756 40.5026L32.0378 42.65L21.3263 31.4338L23.5641 29.2864L30.6949 36.7531L29.1427 23.9329L31.3645 21.8008L42.076 33.017L39.8541 35.149L32.7081 27.6663L34.2756 40.5026Z" fill="#FFFFFF" fill-opacity="1.000000" fill-rule="nonzero"/>
	<path id="Vector" d="M56.1266 23.7141L46.7108 29.1039L44.6278 28.5338L38.4829 17.7468L39.0298 15.6202L48.4456 10.2303L50.5505 10.8391L52.0758 13.5166L49.4048 15.0455L48.6366 13.6971L41.9303 17.536L46.5389 25.6262L53.2452 21.7874L52.4882 20.4583L55.1592 18.9293L56.6953 21.6261L56.1266 23.7141Z" fill="#FFFFFF" fill-opacity="1.000000" fill-rule="nonzero"/>
	<path id="Vector" d="M79.7051 12.9431L87.4166 12.5251L86.9148 3.22241L79.2034 3.64038L79.7051 12.9431ZM89.1306 15.5422L78.3036 16.1292L76.6965 14.6835L76.0275 2.27979L77.4673 0.624512L88.2942 0.0375977L89.9037 1.52759L90.5728 13.9313L89.1306 15.5422Z" fill="#FFFFFF" fill-opacity="1.000000" fill-rule="nonzero"/>
	<path id="Vector" d="M98.4365 15.8346L95.3956 15.2411L98.356 0L101.397 0.593506L100.208 6.71167L107.789 8.19116L108.977 2.073L111.996 2.66223L109.036 17.9033L106.017 17.3141L107.197 11.2394L99.6163 9.75989L98.4365 15.8346Z" fill="#FFFFFF" fill-opacity="1.000000" fill-rule="nonzero"/>
	<path id="Vector" d="M115.835 19.9509L113.028 18.6355L117.621 8.78967L123.779 6.53381L132.178 10.4708L125.616 24.5363L122.83 23.2301L128.079 11.9778L123.87 10.0046L119.771 11.5116L115.835 19.9509Z" fill="#FFFFFF" fill-opacity="1.000000" fill-rule="nonzero"/>
	<path id="Vector" d="M136.688 22.1931L142.693 27.0605L145.629 23.4211L142.016 20.4923L137.662 20.9857L136.688 22.1931ZM131.833 28.2129L129.424 26.2604L136.227 17.8257L142.759 17.1012L149.969 22.9449L140.229 35.019L137.838 33.0804L140.746 29.4755L134.74 24.6079L131.833 28.2129Z" fill="#FFFFFF" fill-opacity="1.000000" fill-rule="nonzero"/>
	<path id="Vector" d="M159.266 27.6263L161.731 25.745L163.607 28.2157L162.005 29.4386L164.821 33.1447L166.423 31.9218L168.299 34.3925L165.835 36.2738L163.664 35.9791L158.985 29.8199L159.266 27.6263ZM145.447 40.1539L143.57 37.6832L155.894 28.2765L157.771 30.7472L149.567 37.0094L162.449 36.9064L164.312 39.3595L151.989 48.7661L150.125 46.3131L158.347 40.0375L145.447 40.1539Z" fill="#FFFFFF" fill-opacity="1.000000" fill-rule="nonzero"/>
	<path id="Vector" d="M155.812 55.0055L154.584 52.1545L168.805 45.9991L170.033 48.8502L164.324 51.3212L167.386 58.4283L173.094 55.9574L174.313 58.7881L160.093 64.9434L158.874 62.1128L164.542 59.6594L161.48 52.5522L155.812 55.0055Z" fill="#FFFFFF" fill-opacity="1.000000" fill-rule="nonzero"/>
</svg>
