<svg width="40.000000" height="40.000000" viewBox="0 0 40 40" fill="none" xmlns="http://www.w3.org/2000/svg" xmlns:xlink="http://www.w3.org/1999/xlink">
	<desc>
			Created with Pixso.
	</desc>
	<defs/>
	<path id="facebook" d="M20 0C16.0444 0 12.1776 1.17285 8.88861 3.37061C5.59961 5.56836 3.03619 8.69189 1.5224 12.3462C0.00866699 16.001 -0.38739 20.022 0.384277 23.9019C1.15601 27.7812 3.06085 31.3452 5.85785 34.1421C8.65491 36.939 12.2186 38.8442 16.0982 39.6157C19.9778 40.3872 23.9991 39.9912 27.6537 38.4775C31.3082 36.9639 34.4318 34.4004 36.6294 31.1113C38.827 27.8223 40 23.9556 40 20C40 14.6958 37.8929 9.6084 34.1422 5.85791C30.3914 2.10693 25.3043 0 20 0ZM25.0684 18.1055L24.7368 20.8921C24.7225 21.0215 24.6608 21.1411 24.5636 21.2275C24.4664 21.314 24.3406 21.3613 24.2105 21.3604L21.3158 21.3604L21.3158 29.6235C21.3165 29.7222 21.2781 29.8174 21.2091 29.8877C21.1401 29.9585 21.046 29.9985 20.9474 30L18 30C17.9509 29.9995 17.9025 29.9888 17.8574 29.9697C17.8123 29.9502 17.7715 29.9219 17.7373 29.8867C17.7031 29.8516 17.6761 29.8101 17.658 29.7646C17.6399 29.7188 17.6309 29.6699 17.6316 29.6211L17.6474 21.3604L15.4553 21.3604C15.3157 21.3604 15.1818 21.3052 15.0831 21.2065C14.9844 21.1079 14.929 20.9736 14.929 20.834L14.929 18.0498C14.929 17.9106 14.9844 17.7764 15.0831 17.6777C15.1818 17.5791 15.3157 17.5234 15.4553 17.5234L17.6316 17.5234L17.6316 14.8237C17.6316 11.7002 19.4921 10 22.2105 10L24.4395 10C24.579 10 24.713 10.0557 24.8116 10.1543C24.9103 10.2529 24.9658 10.3867 24.9658 10.5264L24.9658 12.8711C24.9658 13.0107 24.9103 13.1445 24.8116 13.2432C24.713 13.3418 24.579 13.3975 24.4395 13.3975L23.0737 13.3975C21.5947 13.4209 21.3158 14.1289 21.3158 15.187L21.3158 17.5156L24.5579 17.5156C24.6313 17.5176 24.7036 17.5347 24.7701 17.5659C24.8365 17.5972 24.8957 17.6421 24.9438 17.6973C24.9919 17.7529 25.0278 17.8179 25.0493 17.8882C25.0707 17.9585 25.0773 18.0322 25.0684 18.1055Z" fill="#FF6B00" fill-opacity="1.000000" fill-rule="nonzero"/>
</svg>
