<svg width="26.000000" height="36.000000" viewBox="0 0 26 36" fill="none" xmlns="http://www.w3.org/2000/svg" xmlns:xlink="http://www.w3.org/1999/xlink">
	<desc>
			Created with Pixso.
	</desc>
	<defs/>
	<path id="Vector" d="M13 0C16.4478 0 19.7544 1.36768 22.1924 3.80176C24.6304 6.23633 26 9.53809 26 12.9805C26 23.4492 13 36 13 36C13 36 0 23.4492 0 12.9805C0 9.53809 1.36964 6.23633 3.80762 3.80176C6.24557 1.36768 9.55219 0 13 0ZM13 19.5757C14.3063 19.5757 15.5833 19.189 16.6694 18.4644C17.7556 17.7393 18.6021 16.7095 19.1021 15.5044C19.602 14.2993 19.7328 12.9731 19.4779 11.6938C19.2231 10.4146 18.594 9.23975 17.6703 8.31738C16.7466 7.39502 15.5697 6.76709 14.2885 6.51221C13.0073 6.25781 11.6793 6.38867 10.4724 6.8877C9.26556 7.38672 8.23404 8.23193 7.5083 9.31689C6.78256 10.4014 6.3952 11.6763 6.3952 12.9805C6.3952 14.7295 7.09106 16.4072 8.32971 17.644C9.56833 18.8809 11.2483 19.5757 13 19.5757Z" fill="#FF6B00" fill-opacity="1.000000" fill-rule="nonzero"/>
</svg>
