<svg width="35.000000" height="40.000000" viewBox="0 0 35 40" fill="none" xmlns="http://www.w3.org/2000/svg" xmlns:xlink="http://www.w3.org/1999/xlink">
	<desc>
			Created with Pixso.
	</desc>
	<defs/>
	<path id="icon_1" d="M14.9664 6.21039C16.6447 5.89856 18.3822 5.9035 20.034 6.21039C20.0339 6.20996 20.0342 6.20648 20.0348 6.2002C20.0466 6.07819 20.1612 4.89807 19.0009 4.76001L19.3315 2.24988C19.9398 -0.749084 15.0607 -0.750854 15.6688 2.24988L15.9995 4.76001C14.8397 4.89801 14.9539 6.07965 14.9656 6.20044C14.9662 6.20654 14.9666 6.20996 14.9664 6.21039ZM17.5002 7.35815C10.5645 7.35815 4.94183 13.0181 4.94183 20.0001C4.94183 26.9819 10.5645 32.642 17.5002 32.642C24.436 32.642 30.0585 26.9819 30.0585 20.0001C30.0585 13.0181 24.436 7.35815 17.5002 7.35815ZM28.0901 10.9012C29.1866 12.192 30.0543 13.6846 30.6299 15.3152C30.6304 15.3147 30.6345 15.3128 30.6418 15.3093C30.7668 15.2509 31.82 14.7587 31.3615 13.688L33.6862 12.7223C36.5703 11.7523 34.1324 7.49774 31.8548 9.52844L29.8607 11.0719C29.1609 10.127 28.1975 10.8237 28.0984 10.8954C28.0934 10.899 28.0906 10.9011 28.0901 10.9012ZM4.37134 15.3144C4.94611 13.6838 5.81384 12.1912 6.91028 10.9012C6.90985 10.9011 6.9071 10.8992 6.90216 10.8956C6.80383 10.8243 5.83954 10.1255 5.13971 11.072L3.14557 9.5285C0.869629 7.49872 -1.57159 11.7515 1.31421 12.7216L3.63898 13.6882C3.18011 14.7594 4.23413 15.2502 4.35938 15.3086C4.36676 15.312 4.37091 15.3139 4.37134 15.3144ZM17.5002 29.2713C12.4138 29.2713 8.29022 25.1202 8.29022 20.0001C8.29022 14.8798 12.4138 10.7288 17.5002 10.7288C22.5866 10.7288 26.7102 14.8798 26.7102 20.0001C26.7102 25.1202 22.5866 29.2713 17.5002 29.2713ZM19.1928 12.2943L19.1928 12.2938C18.084 12.0464 16.9146 12.0467 15.8076 12.2938L15.8076 12.2941C15.8076 12.3025 15.8098 12.3109 16.2188 15.2627C17.0738 15.0263 17.973 15.0391 18.7816 15.2627C19.1907 12.3096 19.1929 12.3019 19.1928 12.2943ZM12.7839 18.7488C13.0083 17.89 13.4589 17.1234 14.0679 16.5164L11.7208 14.6745C10.9585 15.5118 10.3726 16.5146 10.0248 17.6227L12.7839 18.7488ZM22.2166 18.7488L24.9756 17.6227C24.6278 16.5146 24.0419 15.5118 23.2795 14.6745L20.9325 16.5164C21.5416 17.1234 21.9921 17.89 22.2166 18.7488ZM17.5002 23.5298C19.4368 23.5298 21.0066 21.9495 21.0066 20.0001C21.0066 18.0506 19.4368 16.4703 17.5002 16.4703C15.5637 16.4703 13.9938 18.0506 13.9938 20.0001C13.9938 21.9495 15.5637 23.5298 17.5002 23.5298ZM23.2795 25.3255C24.0419 24.4882 24.6278 23.4854 24.9756 22.3773L22.2166 21.2512C21.9921 22.11 21.5416 22.8766 20.9325 23.4836L23.2795 25.3255ZM11.7208 25.3254L14.0679 23.4844C13.4597 22.8775 13.0083 22.11 12.7839 21.252L10.0248 22.3781C10.3734 23.4861 10.9585 24.4881 11.7208 25.3254ZM29.8607 28.928L31.8548 30.4715C34.1324 32.5023 36.5703 28.2477 33.6862 27.2784L31.3615 26.3118C31.8203 25.2406 30.7663 24.7498 30.641 24.6914C30.6337 24.688 30.6295 24.6861 30.629 24.6856C30.0543 26.3162 29.1866 27.8088 28.0901 29.0988C28.0906 29.0989 28.0934 29.1009 28.0984 29.1046C28.1975 29.1763 29.1612 29.874 29.8607 28.928ZM6.91028 29.0988C5.81384 27.8088 4.94611 26.3162 4.37134 24.6857C4.37091 24.6862 4.3667 24.6881 4.35938 24.6915C4.23407 24.7498 3.17993 25.2402 3.63898 26.312L1.31421 27.2786C-1.57159 28.2486 0.869629 32.5014 3.14557 30.4725L5.13971 28.9281C5.83936 29.8743 6.80286 29.1765 6.90198 29.1046C6.90704 29.101 6.90985 29.0989 6.91028 29.0988ZM15.8076 27.7062C16.9163 27.9537 18.0857 27.9533 19.1928 27.7062L18.7816 24.7374C17.9266 24.9738 17.0275 24.961 16.2188 24.7374L15.8076 27.7062ZM19.3315 37.7501L19.0009 35.24C20.16 35.1021 20.0465 33.9216 20.0348 33.7997C20.0342 33.7935 20.0339 33.79 20.034 33.7896C18.3557 34.1014 16.6183 34.0965 14.9664 33.7896C14.9666 33.79 14.9662 33.7935 14.9656 33.7996C14.9538 33.9204 14.8385 35.1019 15.9995 35.24L15.6688 37.7501C15.0607 40.7509 19.9398 40.7491 19.3315 37.7501Z" fill="#FF6B00" fill-opacity="1.000000" fill-rule="evenodd"/>
</svg>
