<svg width="30.000000" height="30.000000" viewBox="0 0 30 30" fill="none" xmlns="http://www.w3.org/2000/svg" xmlns:xlink="http://www.w3.org/1999/xlink">
	<desc>
			Created with Pixso.
	</desc>
	<defs/>
	<path id="Vector" d="M29.2263 5.18066C29.5957 6.13013 29.8535 7.22607 29.9238 8.82007C29.994 10.4202 30 10.9299 30 15.0029C30 19.0762 29.9824 19.5859 29.9121 21.1858C29.8418 22.7798 29.5837 23.8701 29.2146 24.8254C28.829 25.8225 28.2393 26.728 27.4832 27.4839C26.7271 28.2397 25.8214 28.8293 24.8241 29.2148C23.8746 29.584 22.7786 29.8418 21.1842 29.9121C19.5839 29.9827 19.074 30 15.0001 30C10.9263 30 10.4161 29.9827 8.8161 29.9121C7.2215 29.8418 6.13135 29.584 5.1759 29.2148C4.17944 28.8398 3.27087 28.2478 2.52051 27.4858C1.75848 26.7358 1.16663 25.8333 0.785645 24.8254C0.416321 23.8757 0.158264 22.78 0.0879517 21.1858C0.0176392 19.5859 0 19.0762 0 15.0029C0 10.9299 0.0176392 10.4202 0.0939331 8.81421C0.164185 7.22021 0.422058 6.13013 0.791321 5.1748C1.16663 4.17847 1.75848 3.27026 2.52051 2.52002C3.27087 1.7522 4.17346 1.16602 5.18188 0.785156C6.13141 0.41626 7.22748 0.158203 8.82178 0.0878906C10.4221 0.0175781 10.932 0 15.0059 0C19.0797 0 19.5896 0.0175781 21.1958 0.0939941C22.7902 0.164062 23.8805 0.421875 24.8358 0.79126C25.8323 1.16602 26.7408 1.75806 27.4912 2.52002C28.259 3.27026 28.8452 4.17261 29.2263 5.18066ZM26.7058 23.8523C26.911 23.325 27.1571 22.5337 27.2217 21.0686C27.292 19.4863 27.3096 19.0176 27.3096 15.0146C27.3096 11.012 27.292 10.5374 27.2217 8.95508C27.1571 7.49561 26.911 6.69873 26.7058 6.17114C26.4653 5.52051 26.0844 4.93457 25.5861 4.448C25.1055 3.94995 24.5134 3.56885 23.8629 3.32886C23.3353 3.12378 22.5441 2.87769 21.0786 2.81299C19.5017 2.74268 19.0271 2.7251 15.0175 2.7251C11.0143 2.7251 10.5393 2.74268 8.95667 2.81299C7.49725 2.87769 6.69995 3.12378 6.17236 3.32886C5.52161 3.56885 4.93542 3.94995 4.44916 4.448C3.94495 4.92871 3.56396 5.52051 3.32349 6.17114C3.11835 6.69873 2.87219 7.48975 2.80792 8.95508C2.7373 10.5312 2.71997 11.012 2.71997 15.0146C2.71997 19.0176 2.7373 19.4922 2.80792 21.0747C2.87219 22.5337 3.11835 23.3311 3.32349 23.8584C3.56396 24.5088 3.94495 25.0947 4.44318 25.5813C4.92383 26.0793 5.51593 26.4604 6.16638 26.7007C6.69397 26.9058 7.48529 27.1519 8.95068 27.2163C10.5276 27.2869 11.0083 27.3042 15.0118 27.3042C19.0154 27.3042 19.49 27.2869 21.0726 27.2163C22.5323 27.1519 23.3293 26.9058 23.8569 26.7007C25.1642 26.1965 26.2015 25.1594 26.7058 23.8523ZM23.0187 8.79077C24.0126 8.79077 24.8185 7.98511 24.8185 6.9917C24.8185 5.9978 24.0126 5.19263 23.0187 5.19263C22.0249 5.19263 21.2192 5.9978 21.2192 6.9917C21.2192 7.98511 22.0249 8.79077 23.0187 8.79077ZM7.29785 15.0029C7.29785 10.748 10.7505 7.29639 15.0059 7.29639C19.2615 7.29639 22.714 10.748 22.714 15.0029C22.714 19.2578 19.2615 22.7097 15.0059 22.7097C10.7505 22.7097 7.29785 19.2578 7.29785 15.0029ZM10.0057 15.0029C10.0057 17.7634 12.2451 20.002 15.0059 20.002C17.7667 20.002 20.0059 17.7634 20.0059 15.0029C20.0059 12.2427 17.7668 10.0039 15.0059 10.0039C12.2451 10.0039 10.0057 12.2427 10.0057 15.0029Z" fill="#FFFFFF" fill-opacity="1.000000" fill-rule="evenodd"/>
</svg>
