<svg width="40.000000" height="40.000000" viewBox="0 0 40 40" fill="none" xmlns="http://www.w3.org/2000/svg" xmlns:xlink="http://www.w3.org/1999/xlink">
	<desc>
			Created with Pixso.
	</desc>
	<defs/>
	<path id="insta" d="M8.88861 3.37061C12.1776 1.17285 16.0444 0 20 0C25.3043 0 30.3914 2.10693 34.1422 5.85791C37.8929 9.6084 40 14.6958 40 20C40 23.9556 38.827 27.8223 36.6294 31.1113C34.4318 34.4004 31.3082 36.9639 27.6537 38.4775C23.9991 39.9912 19.9778 40.3872 16.0982 39.6157C12.2186 38.8438 8.65491 36.939 5.85785 34.1421C3.06085 31.3452 1.15601 27.7812 0.384277 23.9019C-0.38739 20.022 0.00866699 16.001 1.5224 12.3462C3.03619 8.69189 5.59961 5.56836 8.88861 3.37061ZM28.2534 28.2534C29.3705 27.1362 29.9986 25.6216 30 24.042L30 15.958C29.9979 14.3784 29.3695 12.8643 28.2527 11.7476C27.1358 10.6304 25.6216 10.002 24.0421 10L15.9579 10C14.3784 10.002 12.8642 10.6304 11.7473 11.7476C10.6305 12.8643 10.0021 14.3784 10 15.958L10 24.042C10.0021 25.6216 10.6305 27.1357 11.7473 28.2524C12.8642 29.3696 14.3784 29.998 15.9579 30L24.0421 30C25.6218 29.9985 27.1364 29.3706 28.2534 28.2534ZM24.0421 12.0132L15.9579 12.0132C14.911 12.0132 13.907 12.4292 13.1667 13.1694C12.4264 13.9097 12.0105 14.9136 12.0105 15.9604L12.0105 24.042C12.0105 25.0889 12.4264 26.0933 13.1667 26.8335C13.907 27.5737 14.911 27.9893 15.9579 27.9893L24.0421 27.9893C25.089 27.9893 26.093 27.5737 26.8333 26.8335C27.5736 26.0933 27.9894 25.0889 27.9894 24.042L27.9894 15.958C27.9888 14.9116 27.5726 13.9082 26.8324 13.1685C26.0922 12.4287 25.0886 12.0132 24.0421 12.0132ZM25.2026 16.1055C24.9495 16.106 24.7018 16.0312 24.4911 15.8906C24.2804 15.7505 24.116 15.5508 24.0189 15.3169C23.9218 15.083 23.8962 14.8257 23.9455 14.5776C23.9948 14.3291 24.1166 14.1011 24.2957 13.9219C24.4747 13.7432 24.7028 13.6211 24.9511 13.5718C25.1995 13.5225 25.4568 13.5483 25.6907 13.645C25.9244 13.7422 26.1241 13.9067 26.2645 14.1172C26.4048 14.3281 26.4795 14.5757 26.4789 14.8291C26.4783 15.167 26.3436 15.4917 26.1044 15.7305C25.8651 15.9697 25.5409 16.1045 25.2026 16.1055ZM20 25.1738C18.9766 25.1743 17.9761 24.8711 17.1249 24.3032C16.2738 23.7349 15.6102 22.9272 15.2183 21.9819C14.8263 21.0366 14.7234 19.9961 14.9228 18.9922C15.1221 17.9883 15.6146 17.0664 16.3381 16.3428C17.0615 15.6187 17.9834 15.126 18.9871 14.9258C19.9907 14.7261 21.0311 14.8286 21.9766 15.2197C22.9222 15.6113 23.7303 16.2744 24.299 17.1255C24.8676 17.9761 25.171 18.9766 25.171 20C25.1697 21.3711 24.6245 22.686 23.6551 23.6558C22.6857 24.626 21.3713 25.1714 20 25.1738ZM20 23.1606C21.7455 23.1606 23.1605 21.7456 23.1605 20C23.1605 18.2544 21.7455 16.8394 20 16.8394C18.2545 16.8394 16.8395 18.2544 16.8395 20C16.8395 21.7456 18.2545 23.1606 20 23.1606Z" fill="#FF6B00" fill-opacity="1.000000" fill-rule="evenodd"/>
</svg>
