<svg width="30.000000" height="30.000000" viewBox="0 0 30 30" fill="none" xmlns="http://www.w3.org/2000/svg" xmlns:xlink="http://www.w3.org/1999/xlink">
	<desc>
			Created with Pixso.
	</desc>
	<defs/>
	<path id="insta" d="M21.0631 0L8.93689 0C6.56763 0.00311279 4.29626 0.945679 2.62097 2.62097C0.945679 4.29633 0.00317383 6.56763 0 8.93683L0 21.0632C0.00317383 23.4324 0.945801 25.7037 2.62109 27.379C4.29639 29.0543 6.56763 29.9969 8.93689 30L21.0631 30C23.4327 29.9979 25.7046 29.0557 27.3801 27.3801C29.0557 25.7046 29.9979 23.4327 30 21.0632L30 8.93683C29.9968 6.56763 29.0543 4.29633 27.379 2.62097C25.7037 0.945679 23.4324 0.00311279 21.0631 0ZM26.9843 21.0632C26.9843 22.6335 26.3604 24.1396 25.25 25.25C24.1395 26.3604 22.6335 26.9842 21.0631 26.9842L8.93689 26.9842C7.36646 26.9842 5.86047 26.3604 4.75 25.25C3.63965 24.1396 3.01575 22.6335 3.01575 21.0632L3.01575 8.93683C3.01575 7.36646 3.63965 5.86041 4.75 4.75C5.86047 3.63959 7.36646 3.01581 8.93689 3.01581L21.0631 3.01581C22.6335 3.01581 24.1395 3.63959 25.25 4.75C26.3604 5.86041 26.9843 7.36646 26.9843 8.93683L26.9843 21.0632ZM24.7223 7.24341C24.7223 8.30292 23.8634 9.16187 22.804 9.16187C21.7444 9.16187 20.8855 8.30292 20.8855 7.24341C20.8855 6.1839 21.7444 5.32501 22.804 5.32501C23.8634 5.32501 24.7223 6.1839 24.7223 7.24341ZM14.9999 7.24341C13.4647 7.24268 11.9637 7.6972 10.6869 8.54968C9.41016 9.4021 8.41479 10.6141 7.8269 12.0323C7.23914 13.4505 7.08508 15.0112 7.3844 16.517C7.68372 18.0228 8.42285 19.4059 9.50842 20.4915C10.594 21.577 11.9772 22.3162 13.4829 22.6155C14.9888 22.9149 16.5494 22.7609 17.9677 22.173C19.3859 21.5851 20.5978 20.5898 21.4503 19.313C22.3027 18.0362 22.7573 16.5352 22.7565 15C22.7534 12.9438 21.9352 10.9727 20.4812 9.51874C19.0272 8.06476 17.0562 7.24658 14.9999 7.24341ZM14.9999 19.7368C14.0631 19.7368 13.1472 19.459 12.3683 18.9385C11.5894 18.418 10.9822 17.6783 10.6237 16.8127C10.2651 15.9471 10.1714 14.9948 10.3541 14.0759C10.5369 13.157 10.988 12.313 11.6505 11.6506C12.313 10.9881 13.157 10.5369 14.0758 10.3542C14.9946 10.1714 15.9471 10.2652 16.8126 10.6237C17.6782 10.9822 18.418 11.5894 18.9385 12.3683C19.459 13.1473 19.7368 14.0632 19.7368 15C19.7368 16.2563 19.2377 17.4611 18.3494 18.3495C17.4611 19.2378 16.2562 19.7368 14.9999 19.7368Z" fill="#FF6B00" fill-opacity="1.000000" fill-rule="evenodd"/>
</svg>
