<svg width="29.000000" height="29.000000" viewBox="0 0 29 29" fill="none" xmlns="http://www.w3.org/2000/svg" xmlns:xlink="http://www.w3.org/1999/xlink">
	<desc>
			Created with Pixso.
	</desc>
	<defs/>
	<path id="Vector" d="M14.5 0C22.5081 0 29 6.4917 29 14.5C29 22.5083 22.5081 29 14.5 29C6.49185 29 0 22.5083 0 14.5C0 6.4917 6.49185 0 14.5 0ZM23.0131 21.2085C23.2203 21 23.3366 20.7183 23.3366 20.4243C23.3366 20.1309 23.2203 19.8486 23.0131 19.6406L20.1748 16.8027C19.9664 16.5957 19.6845 16.479 19.3906 16.479C19.0967 16.479 18.8147 16.5957 18.6064 16.8027L17.8351 17.5747C17.579 17.833 17.2463 18.0015 16.8866 18.0552C16.5269 18.1094 16.1594 18.0454 15.8388 17.8735C13.8317 16.8105 12.1901 15.1689 11.1267 13.1621C10.9547 12.8413 10.8909 12.4736 10.9447 12.1138C10.9985 11.7544 11.167 11.4214 11.4252 11.165L12.198 10.3936C12.4052 10.1851 12.5215 9.90332 12.5215 9.60938C12.5215 9.31592 12.4052 9.03369 12.198 8.82568L9.35965 5.98828C9.15131 5.78076 8.86932 5.66455 8.57541 5.66455C8.28149 5.66455 7.99954 5.78076 7.7912 5.98828C7.67389 6.10498 7.52551 6.24609 7.36679 6.396C6.96991 6.771 6.47476 7.23779 6.2746 7.53125C5.22034 9.07422 5.72592 11.1382 6.33328 12.5986C7.13559 14.5229 8.61426 16.6201 10.4984 18.5029C12.3809 20.3853 14.4772 21.8643 16.4027 22.6665C17.8625 23.2749 19.9258 23.7788 21.4686 22.7251C21.7619 22.5249 22.2295 22.0308 22.6039 21.6333C22.754 21.4751 22.8954 21.3252 23.0131 21.2085Z" fill="#FF6B00" fill-opacity="1.000000" fill-rule="evenodd"/>
</svg>
