<svg width="50.000000" height="47.058594" viewBox="0 0 50 47.0586" fill="none" xmlns="http://www.w3.org/2000/svg" xmlns:xlink="http://www.w3.org/1999/xlink">
	<desc>
			Created with Pixso.
	</desc>
	<defs/>
	<path id="Vector" d="M28.472 44.9839L28.472 36.5347C28.472 35.3887 29.3893 34.46 30.5209 34.46C34.558 34.46 36.7542 30.2666 37.0585 21.9897L30.5209 21.9897C29.3893 21.9897 28.472 21.0605 28.472 19.915L28.472 2.07373C28.472 0.928711 29.3893 0 30.5209 0L47.9517 0C49.0836 0 50 0.929199 50 2.07373L50 19.915C50 23.8828 49.6056 27.5234 48.8279 30.7378C48.0304 34.0337 46.8062 36.9155 45.1903 39.3032C43.5277 41.7573 41.4479 43.6831 39.0083 45.0244C36.5522 46.374 33.6962 47.0586 30.5201 47.0586C29.3893 47.0586 28.472 46.1299 28.472 44.9839ZM2.04895 34.46C0.917969 34.46 0 35.3892 0 36.5342L0 44.9839C0 46.1299 0.917847 47.0586 2.04895 47.0586C5.22375 47.0586 8.08032 46.3735 10.5355 45.0244C12.9755 43.6826 15.0564 41.7573 16.7194 39.3032C18.3346 36.9155 19.5588 34.0337 20.3564 30.7368C21.1337 27.5215 21.5282 23.8804 21.5282 19.915L21.5282 2.07373C21.5282 0.928223 20.6106 0 19.4794 0L2.04907 0C0.918091 0 0.000976562 0.929199 0.000976562 2.07373L0.000976562 19.915C0.000976562 21.0605 0.917969 21.9897 2.04907 21.9897L8.49353 21.9897C8.19373 30.2661 6.02979 34.46 2.04895 34.46Z" fill="#FF6B00" fill-opacity="1.000000" fill-rule="nonzero"/>
</svg>
